<mxfile host="app.diagrams.net" modified="2022-04-26T05:12:35.238Z" agent="5.0 (Windows NT 10.0; Win64; x64) AppleWebKit/537.36 (KHTML, like Gecko) Chrome/100.0.4896.127 Safari/537.36 Edg/100.0.1185.50" etag="6hBeleJ9_kUEgufmTFTB" version="17.4.6" type="github">
  <diagram id="YCnlmsBtczG7Nti9L41V" name="Page-1">
    <mxGraphModel dx="1038" dy="579" grid="1" gridSize="10" guides="1" tooltips="1" connect="1" arrows="1" fold="1" page="1" pageScale="1" pageWidth="850" pageHeight="1100" math="0" shadow="0">
      <root>
        <mxCell id="0" />
        <mxCell id="1" parent="0" />
        <mxCell id="ObidsI_ypg8Jan3Uvcei-3" value="" style="edgeStyle=orthogonalEdgeStyle;rounded=0;orthogonalLoop=1;jettySize=auto;html=1;" edge="1" parent="1" source="ObidsI_ypg8Jan3Uvcei-1" target="ObidsI_ypg8Jan3Uvcei-2">
          <mxGeometry relative="1" as="geometry" />
        </mxCell>
        <mxCell id="ObidsI_ypg8Jan3Uvcei-1" value="clear the game clock interval" style="rounded=1;whiteSpace=wrap;html=1;" vertex="1" parent="1">
          <mxGeometry x="280" y="30" width="120" height="60" as="geometry" />
        </mxCell>
        <mxCell id="ObidsI_ypg8Jan3Uvcei-5" value="yes" style="edgeStyle=orthogonalEdgeStyle;rounded=0;orthogonalLoop=1;jettySize=auto;html=1;" edge="1" parent="1" source="ObidsI_ypg8Jan3Uvcei-2" target="ObidsI_ypg8Jan3Uvcei-4">
          <mxGeometry relative="1" as="geometry" />
        </mxCell>
        <mxCell id="ObidsI_ypg8Jan3Uvcei-2" value="IF game traffic interval" style="rhombus;whiteSpace=wrap;html=1;rounded=1;" vertex="1" parent="1">
          <mxGeometry x="300" y="120" width="80" height="80" as="geometry" />
        </mxCell>
        <mxCell id="ObidsI_ypg8Jan3Uvcei-15" value="" style="edgeStyle=orthogonalEdgeStyle;rounded=0;orthogonalLoop=1;jettySize=auto;html=1;" edge="1" parent="1" source="ObidsI_ypg8Jan3Uvcei-4" target="ObidsI_ypg8Jan3Uvcei-14">
          <mxGeometry relative="1" as="geometry" />
        </mxCell>
        <mxCell id="ObidsI_ypg8Jan3Uvcei-4" value="clear the traffic interval" style="whiteSpace=wrap;html=1;rounded=1;" vertex="1" parent="1">
          <mxGeometry x="280" y="250" width="120" height="60" as="geometry" />
        </mxCell>
        <mxCell id="ObidsI_ypg8Jan3Uvcei-7" value="IF game traffic interval" style="rhombus;whiteSpace=wrap;html=1;rounded=1;" vertex="1" parent="1">
          <mxGeometry x="300" y="120" width="80" height="80" as="geometry" />
        </mxCell>
        <mxCell id="ObidsI_ypg8Jan3Uvcei-10" value="yes" style="edgeStyle=orthogonalEdgeStyle;rounded=0;orthogonalLoop=1;jettySize=auto;html=1;" edge="1" parent="1">
          <mxGeometry relative="1" as="geometry">
            <mxPoint x="340" y="200" as="sourcePoint" />
            <mxPoint x="340" y="250" as="targetPoint" />
          </mxGeometry>
        </mxCell>
        <mxCell id="ObidsI_ypg8Jan3Uvcei-11" value="IF game traffic interval" style="rhombus;whiteSpace=wrap;html=1;rounded=1;" vertex="1" parent="1">
          <mxGeometry x="300" y="120" width="80" height="80" as="geometry" />
        </mxCell>
        <mxCell id="ObidsI_ypg8Jan3Uvcei-17" value="" style="edgeStyle=orthogonalEdgeStyle;rounded=0;orthogonalLoop=1;jettySize=auto;html=1;" edge="1" parent="1" source="ObidsI_ypg8Jan3Uvcei-12" target="ObidsI_ypg8Jan3Uvcei-16">
          <mxGeometry relative="1" as="geometry" />
        </mxCell>
        <mxCell id="ObidsI_ypg8Jan3Uvcei-12" value="clear the traffic timeout" style="whiteSpace=wrap;html=1;rounded=1;" vertex="1" parent="1">
          <mxGeometry x="280" y="460" width="120" height="60" as="geometry" />
        </mxCell>
        <mxCell id="ObidsI_ypg8Jan3Uvcei-13" value="yes" style="edgeStyle=orthogonalEdgeStyle;rounded=0;orthogonalLoop=1;jettySize=auto;html=1;" edge="1" parent="1">
          <mxGeometry relative="1" as="geometry">
            <mxPoint x="340" y="410" as="sourcePoint" />
            <mxPoint x="340" y="460" as="targetPoint" />
          </mxGeometry>
        </mxCell>
        <mxCell id="ObidsI_ypg8Jan3Uvcei-14" value="IF game traffic timeout" style="rhombus;whiteSpace=wrap;html=1;rounded=1;" vertex="1" parent="1">
          <mxGeometry x="300" y="340" width="80" height="80" as="geometry" />
        </mxCell>
        <mxCell id="ObidsI_ypg8Jan3Uvcei-16" value="set the simulation interval empty" style="rounded=1;whiteSpace=wrap;html=1;" vertex="1" parent="1">
          <mxGeometry x="280" y="560" width="120" height="60" as="geometry" />
        </mxCell>
      </root>
    </mxGraphModel>
  </diagram>
</mxfile>
